<svg width="58" height="58" viewBox="0 0 58 58" fill="none" xmlns="http://www.w3.org/2000/svg">
<rect width="57.2554" height="57.2554" fill="#F6F1EB"/>
<path fill-rule="evenodd" clip-rule="evenodd" d="M31.2398 18.4957C31.3276 17.9199 31.4422 17.3467 31.4976 16.7679C31.5789 15.9235 31.6093 15.0746 31.6757 14.229C31.7741 12.9634 31.8621 11.696 31.9988 10.4342C32.1051 9.45218 32.2508 8.47252 32.4322 7.50136C32.5247 7.00904 32.6974 6.52193 33.0609 6.13768C33.3948 5.78535 33.5548 5.7494 33.9576 6.02063C34.4871 6.37698 34.7838 6.89152 34.917 7.51129C35.0651 8.20271 35.2011 8.89035 35.2323 9.60305C35.2724 10.5089 35.3959 11.4106 35.4622 12.3158C35.5159 13.0403 35.4986 13.7719 35.5835 14.4922C35.7254 15.6984 35.7977 16.9053 35.7791 18.1186C35.7751 18.3612 35.7815 18.605 35.8005 18.8466C35.8816 19.8525 35.9748 20.857 36.0538 21.863C36.1301 22.8474 36.1857 23.8336 36.2728 24.8173C36.2849 24.9559 36.4059 25.0968 36.5039 25.2136C37.2705 26.1285 37.5289 27.2215 37.3249 28.3373C37.1827 29.1122 36.7937 29.8694 36.3916 30.5641C35.7851 31.6138 35.0699 32.6017 34.4022 33.6168C33.9557 34.296 33.496 34.9838 33.3717 35.7984C33.1168 37.4676 33.2207 39.1446 33.3883 40.8148C33.4673 41.597 33.6187 42.3719 33.7238 43.1522C33.9264 44.6502 34.1364 46.1482 34.3042 47.6512C34.348 48.0394 34.3699 48.5157 34.1861 48.8243C33.8594 49.3719 33.3938 49.8368 32.7861 50.14C32.1369 50.4641 31.4628 50.6032 30.7448 50.6911C29.1607 50.8858 27.5762 50.811 25.9907 50.8264C25.9108 50.8276 25.8283 50.8087 25.7508 50.7867C24.658 50.4748 23.5524 50.2005 22.4791 49.8342C21.4885 49.4965 21.556 49.3173 21.605 48.3755C21.6074 48.335 21.6228 48.2958 21.6314 48.2565C21.9602 46.7361 22.2993 45.2175 22.616 43.6947C22.9651 42.012 23.2811 40.3253 23.2154 38.5911C23.1905 37.9316 23.0813 37.3076 22.7784 36.7192C22.3438 35.8732 21.8278 35.0564 21.5006 34.1711C21.0672 32.999 20.755 31.7788 20.4468 30.5653C20.3089 30.0221 20.293 29.4454 20.2499 28.8817C20.1674 27.7961 20.0809 26.7095 20.0402 25.6215C20.0015 24.5716 19.9805 23.5184 20.0279 22.4697C20.05 21.9802 20.039 21.5109 19.9722 21.0264C19.8881 20.4085 19.8671 19.779 19.8647 19.1547C19.8643 18.9528 19.9632 18.7116 20.0963 18.5558C20.5448 18.0306 21.149 17.7601 21.8093 17.5693C22.2798 17.4333 22.635 17.6958 23.0369 17.8043C23.112 17.8246 23.1843 17.8542 23.283 17.8882C24.4538 16.8556 25.7094 16.9003 26.9608 17.6646C27.1142 17.5579 27.2176 17.4931 27.313 17.4186C27.8951 16.963 28.5368 16.8041 29.2587 17.0162C29.6277 17.1249 29.9944 17.2453 30.3686 17.3323C30.784 17.4286 30.9669 17.7227 31.0819 18.0845C31.1231 18.2136 31.1345 18.352 31.159 18.4863C31.1858 18.4891 31.2127 18.4924 31.2398 18.4957ZM28.4281 26.8542C27.5517 27.3867 26.9128 28.1333 26.2345 28.858C25.5418 29.5984 25.2432 30.5381 24.7239 31.3714C24.5082 30.6383 24.8382 30.0243 25.1787 29.4567C25.5287 28.8734 25.9986 28.3612 26.4534 27.7698C26.331 27.7528 26.2266 27.7291 26.1215 27.7249C25.3637 27.6923 24.7776 27.3678 24.4885 26.661C24.3477 26.3172 24.1328 26.2721 23.8251 26.2836C23.4794 26.2966 23.1329 26.2862 22.7875 26.2846C21.8908 26.2803 21.2341 25.8393 20.7742 25.116C20.6458 24.9148 20.6154 24.6137 20.6363 24.3666C20.6694 23.9665 20.5864 23.6107 20.3838 23.1744C20.3838 24.0472 20.3517 24.8322 20.3909 25.614C20.4509 26.7823 20.5384 27.9507 20.658 29.1143C20.7362 29.8753 20.8639 30.6339 21.0208 31.3827C21.157 32.0344 21.3159 32.6897 21.5534 33.3099C21.8853 34.1749 22.1994 35.0732 22.6997 35.8424C23.6981 37.3771 23.8365 39.0399 23.574 40.7434C23.2169 43.0572 22.7344 45.3518 22.2962 47.6526C22.2282 48.0097 22.0903 48.3528 22.0168 48.7084C21.9217 49.169 21.9971 49.3388 22.4006 49.4601C23.4689 49.7808 24.5429 50.0818 25.6198 50.3717C25.8504 50.4336 26.1034 50.4341 26.3453 50.4294C27.565 50.4031 28.7867 50.3984 30.0034 50.323C30.8489 50.2707 31.6902 50.1681 32.4655 49.737C33.001 49.4386 33.3957 49.0196 33.7604 48.5611C33.8601 48.4353 33.8884 48.2168 33.8758 48.047C33.8178 47.2419 33.7478 46.4376 33.6561 45.6375C33.5277 44.5145 33.3748 43.3948 33.2335 42.274C33.1151 41.3331 32.9439 40.3951 32.8945 39.4506C32.8379 38.3612 32.864 37.2652 32.8992 36.1737C32.9437 34.8327 33.6879 33.7786 34.4103 32.7206C34.8785 32.0349 35.325 31.3347 35.796 30.6511C36.3091 29.907 36.6373 29.0793 36.9012 28.2285C36.9937 27.9304 36.9578 27.5932 36.9794 27.2737C36.9806 27.2546 36.9682 27.2352 36.9637 27.2155C36.5752 25.2678 36.6427 25.5149 34.9165 24.2799C33.5952 23.334 32.1774 22.5326 30.7044 21.8355C30.0003 21.5021 29.2715 21.2198 28.4793 21.2824C27.9783 21.3222 27.4709 21.425 26.9937 21.5818C26.3579 21.7904 25.7423 22.0654 25.1298 22.3364C24.0897 22.7965 23.0557 23.2704 22.0252 23.7516C21.7886 23.862 21.557 24.0025 21.357 24.1699C20.9055 24.5482 20.91 24.932 21.3199 25.3662C21.6178 25.6814 22.0054 25.8374 22.4084 25.8528C23.6663 25.9008 24.9334 25.9725 26.1531 25.5546C26.4779 25.4437 26.7916 25.2962 27.0983 25.1413C27.4768 24.9505 27.527 24.9479 27.7429 25.2687C27.9788 25.6201 28.1937 25.9869 28.445 26.3272C29.3279 27.5248 30.3874 28.4532 31.9755 28.5506C32.2244 28.5657 32.2237 28.5747 32.4106 28.9498C30.6432 29.0302 29.54 27.9519 28.4281 26.8542ZM35.7927 24.4924C35.7986 24.2702 35.8243 24.0417 35.8077 23.8166C35.6871 22.2283 35.5445 20.6412 35.4356 19.0521C35.3747 18.1661 35.3818 17.2758 35.3281 16.3895C35.2572 15.2217 35.1552 14.0556 35.0692 12.8885C35.057 12.7272 35.0642 12.5643 35.0518 12.4032C34.9752 11.4392 34.9156 10.473 34.8093 9.51224C34.7275 8.77259 34.605 8.03553 34.46 7.30533C34.4067 7.03836 34.2778 6.7617 34.109 6.54841C33.7721 6.12349 33.2923 6.19584 33.0552 6.67492C32.7166 7.35924 32.6134 8.10647 32.5466 8.84754C32.4092 10.3744 32.3345 11.9067 32.2144 13.4349C32.106 14.8208 31.9733 16.2049 31.8473 17.5891C31.8181 17.9107 31.7836 18.2328 31.7303 18.5511C31.6478 19.0464 31.5877 19.552 31.2593 19.9691C31.2103 20.0308 31.1597 20.1041 31.1478 20.1784C31.0736 20.6322 31.0111 21.0881 30.9493 21.5102C32.5609 22.5024 34.1454 23.4782 35.7927 24.4924ZM22.8671 22.8135C23.3424 22.5854 23.3417 22.526 23.2685 22.01C23.1926 21.4733 23.1396 20.9308 23.1144 20.3893C23.0894 19.8443 23.1132 19.2966 23.1108 18.7502C23.1084 18.1559 22.6674 17.7795 22.091 17.9273C21.7215 18.0219 21.3494 18.1623 21.0227 18.3557C20.5117 18.6579 20.2293 19.0708 20.2514 19.7428C20.2949 21.0907 20.6824 22.3565 20.9452 23.697C21.6523 23.373 22.2648 23.1032 22.8671 22.8135ZM30.507 21.3761C30.5895 20.8641 30.6932 20.4004 30.7322 19.9318C30.7747 19.4082 30.765 18.8793 30.765 18.3527C30.7657 17.8459 30.6772 17.7066 30.1884 17.5603C29.8213 17.4501 29.4403 17.364 29.0594 17.3238C28.1186 17.225 27.2367 17.8663 27.079 18.8029C26.9694 19.4551 26.9556 20.1233 26.9059 20.7849C26.9005 20.8559 26.9466 20.9303 26.9872 21.0625C28.1847 20.6338 29.3188 20.8767 30.507 21.3761ZM26.4615 21.2198C26.5405 20.1053 26.6168 19.028 26.7003 17.8547C26.0411 17.4647 25.2884 17.3484 24.4828 17.7031C24.4459 17.7194 24.4131 17.744 24.3779 17.7653C23.3707 18.3728 23.5467 18.18 23.5538 19.1656C23.5602 20.0715 23.6142 20.9772 23.6572 21.8824C23.6651 22.0358 23.724 22.1869 23.7706 22.3881C24.7379 21.9682 25.6255 21.5825 26.4615 21.2198ZM24.8019 26.3364C24.7707 26.7485 24.969 27.0339 25.3426 27.1602C25.6219 27.2543 25.9341 27.3127 26.2273 27.2967C26.7105 27.2702 26.9121 26.9519 26.8232 26.4683C26.7908 26.2938 26.7595 26.1191 26.7278 25.9464C26.0787 26.0774 25.4519 26.2044 24.8019 26.3364ZM28.1666 26.4499C27.9481 26.1255 27.7522 25.8348 27.5617 25.552C27.0514 25.7878 27.0429 25.8519 27.3551 27.0325C27.6478 26.8225 27.886 26.6516 28.1666 26.4499Z" fill="black"/>
</svg>
