<svg width="441" height="123" viewBox="0 0 441 123" fill="none" xmlns="http://www.w3.org/2000/svg">
<path d="M120.37 91.9C115.75 91.9 111.55 91.15 107.77 89.65C104.05 88.09 100.84 85.87 98.14 82.99C95.5 80.11 93.46 76.66 92.02 72.64C90.58 68.62 89.86 64.15 89.86 59.23C89.86 54.25 90.58 49.78 92.02 45.82C93.46 41.8 95.5 38.38 98.14 35.56C100.84 32.68 104.05 30.49 107.77 28.99C111.55 27.43 115.75 26.65 120.37 26.65C124.99 26.65 129.16 27.43 132.88 28.99C136.66 30.49 139.87 32.65 142.51 35.47C145.21 38.29 147.28 41.71 148.72 45.73C150.16 49.69 150.88 54.16 150.88 59.14C150.88 64.12 150.16 68.62 148.72 72.64C147.28 76.66 145.21 80.11 142.51 82.99C139.87 85.87 136.66 88.09 132.88 89.65C129.16 91.15 124.99 91.9 120.37 91.9ZM120.37 82C124.27 82 127.57 81.1 130.27 79.3C133.03 77.5 135.13 74.89 136.57 71.47C138.07 68.05 138.82 63.97 138.82 59.23C138.82 54.43 138.1 50.35 136.66 46.99C135.22 43.57 133.12 40.99 130.36 39.25C127.6 37.45 124.27 36.55 120.37 36.55C116.53 36.55 113.23 37.45 110.47 39.25C107.71 40.99 105.58 43.57 104.08 46.99C102.64 50.35 101.92 54.43 101.92 59.23C101.92 63.97 102.64 68.05 104.08 71.47C105.58 74.89 107.71 77.5 110.47 79.3C113.23 81.1 116.53 82 120.37 82ZM161.514 91V27.55H172.764V55.81H171.504C172.824 52.63 174.864 50.23 177.624 48.61C180.444 46.93 183.624 46.09 187.164 46.09C190.704 46.09 193.614 46.75 195.894 48.07C198.174 49.39 199.884 51.4 201.024 54.1C202.164 56.74 202.734 60.1 202.734 64.18V91H191.484V64.72C191.484 62.44 191.184 60.58 190.584 59.14C190.044 57.7 189.174 56.65 187.974 55.99C186.834 55.27 185.364 54.91 183.564 54.91C181.404 54.91 179.514 55.39 177.894 56.35C176.274 57.25 175.014 58.57 174.114 60.31C173.214 61.99 172.764 63.97 172.764 66.25V91H161.514ZM213.441 37.54V26.56H226.041V37.54H213.441ZM214.161 91V46.99H225.411V91H214.161ZM237.1 91V46.99H248.08V57.61H247.18C248.02 54.01 249.67 51.28 252.13 49.42C254.59 47.5 257.86 46.39 261.94 46.09L265.36 45.82L266.08 55.36L259.6 55.99C255.94 56.35 253.18 57.49 251.32 59.41C249.46 61.27 248.53 63.91 248.53 67.33V91H237.1ZM271.624 37.54V26.56H284.224V37.54H271.624ZM272.344 91V46.99H283.594V91H272.344ZM295.284 91V46.99H306.264V55.81H305.274C306.594 52.63 308.634 50.23 311.394 48.61C314.214 46.93 317.394 46.09 320.934 46.09C324.474 46.09 327.384 46.75 329.664 48.07C331.944 49.39 333.654 51.4 334.794 54.1C335.934 56.74 336.504 60.1 336.504 64.18V91H325.254V64.72C325.254 62.44 324.954 60.58 324.354 59.14C323.814 57.7 322.944 56.65 321.744 55.99C320.604 55.27 319.134 54.91 317.334 54.91C315.174 54.91 313.284 55.39 311.664 56.35C310.044 57.25 308.784 58.57 307.884 60.31C306.984 61.99 306.534 63.97 306.534 66.25V91H295.284ZM368.45 108.1C364.37 108.1 360.53 107.62 356.93 106.66C353.39 105.76 350.27 104.35 347.57 102.43L350.81 94.6C352.49 95.68 354.26 96.58 356.12 97.3C357.98 98.08 359.87 98.65 361.79 99.01C363.71 99.37 365.63 99.55 367.55 99.55C371.57 99.55 374.57 98.56 376.55 96.58C378.59 94.66 379.61 91.78 379.61 87.94V79.84H380.42C379.52 82.9 377.63 85.36 374.75 87.22C371.93 89.02 368.72 89.92 365.12 89.92C361.16 89.92 357.71 89.02 354.77 87.22C351.83 85.36 349.55 82.78 347.93 79.48C346.31 76.18 345.5 72.34 345.5 67.96C345.5 63.58 346.31 59.77 347.93 56.53C349.55 53.23 351.83 50.68 354.77 48.88C357.71 47.02 361.16 46.09 365.12 46.09C368.84 46.09 372.08 47.02 374.84 48.88C377.66 50.68 379.49 53.08 380.33 56.08H379.61V46.99H390.59V86.59C390.59 91.33 389.75 95.29 388.07 98.47C386.39 101.71 383.9 104.11 380.6 105.67C377.3 107.29 373.25 108.1 368.45 108.1ZM368.18 81.37C371.66 81.37 374.42 80.17 376.46 77.77C378.5 75.37 379.52 72.1 379.52 67.96C379.52 63.82 378.5 60.58 376.46 58.24C374.42 55.84 371.66 54.64 368.18 54.64C364.7 54.64 361.94 55.84 359.9 58.24C357.86 60.58 356.84 63.82 356.84 67.96C356.84 72.1 357.86 75.37 359.9 77.77C361.94 80.17 364.7 81.37 368.18 81.37ZM418.356 91.9C415.896 91.9 413.496 91.69 411.156 91.27C408.876 90.85 406.776 90.28 404.856 89.56C402.936 88.78 401.256 87.82 399.816 86.68L402.696 79.3C404.196 80.26 405.816 81.1 407.556 81.82C409.296 82.54 411.096 83.08 412.956 83.44C414.816 83.8 416.646 83.98 418.446 83.98C421.326 83.98 423.456 83.5 424.836 82.54C426.276 81.52 426.996 80.2 426.996 78.58C426.996 77.2 426.516 76.15 425.556 75.43C424.656 74.65 423.276 74.08 421.416 73.72L412.416 72.01C408.696 71.29 405.846 69.94 403.866 67.96C401.946 65.92 400.986 63.31 400.986 60.13C400.986 57.25 401.766 54.76 403.326 52.66C404.946 50.56 407.166 48.94 409.986 47.8C412.806 46.66 416.046 46.09 419.706 46.09C421.806 46.09 423.846 46.3 425.826 46.72C427.806 47.08 429.666 47.65 431.406 48.43C433.206 49.15 434.766 50.11 436.086 51.31L433.026 58.69C431.886 57.73 430.566 56.92 429.066 56.26C427.566 55.54 426.006 55 424.386 54.64C422.826 54.22 421.296 54.01 419.796 54.01C416.856 54.01 414.666 54.52 413.226 55.54C411.846 56.56 411.156 57.91 411.156 59.59C411.156 60.85 411.576 61.9 412.416 62.74C413.256 63.58 414.546 64.15 416.286 64.45L425.286 66.16C429.186 66.88 432.126 68.2 434.106 70.12C436.146 72.04 437.166 74.62 437.166 77.86C437.166 80.8 436.386 83.32 434.826 85.42C433.266 87.52 431.076 89.14 428.256 90.28C425.436 91.36 422.136 91.9 418.356 91.9Z" fill="#3F3F3F"/>
<circle cx="34" cy="30" r="19" fill="#00959F"/>
<path d="M60.5 49C64.6421 49 68 52.3579 68 56.5V83.5C68 87.6421 64.6421 91 60.5 91C56.3579 91 53 87.6421 53 83.5V77.5H15V83.5C15 87.6421 11.6421 91 7.5 91C3.35786 91 9.66416e-08 87.6421 0 83.5V56.5C0 52.3579 3.35786 49 7.5 49C11.6421 49 15 52.3579 15 56.5V62.5H53V56.5C53 52.3579 56.3579 49 60.5 49Z" fill="#FBC037"/>
</svg>
